<svg xmlns="http://www.w3.org/2000/svg" xmlns:xlink="http://www.w3.org/1999/xlink" width="1000" height="1000" viewBox="0 0 1000 1000">
  <defs>
    <clipPath id="clip-Linux">
      <rect width="1000" height="1000"/>
    </clipPath>
  </defs>
  <g id="Linux" clip-path="url(#clip-Linux)">
    <path id="Tracé_1" data-name="Tracé 1" d="M356.492,294.707a9.176,9.176,0,0,1-2.264-9.414A32.771,32.771,0,0,0,316.69,242.87a190.666,190.666,0,0,0-41.47-102.721c-13.347-19.186-21.45-31.341-18.232-40.993a78.054,78.054,0,0,0-11.8-69A71.5,71.5,0,0,0,185.608.01a71.5,71.5,0,0,0-59.583,30.149,78.054,78.054,0,0,0-11.2,69c3.217,9.652-4.767,21.807-18.232,40.993A190.666,190.666,0,0,0,54.525,242.87a32.771,32.771,0,0,0-38.014,42.423,9.176,9.176,0,0,1-2.264,9.414l-4.171,4.171a32.771,32.771,0,0,0-9.057,29.2,33.247,33.247,0,0,0,18.709,23.833L74.9,376.932a57.081,57.081,0,0,0,23.833,5.124,59.584,59.584,0,0,0,11.321-.715,57.438,57.438,0,0,0,20.377-8.58,168.141,168.141,0,0,0,55.174,8.58,167.547,167.547,0,0,0,55.174-8.58,57.438,57.438,0,0,0,20.377,8.58,59.583,59.583,0,0,0,11.2,1.073,57.081,57.081,0,0,0,23.833-5.124l55.174-25.025A33.6,33.6,0,0,0,370.2,328.431a33.128,33.128,0,0,0-9.176-29.2ZM145.21,44.1a48.381,48.381,0,0,1,40.4-20.258A47.666,47.666,0,0,1,226,44.1a53.982,53.982,0,0,1,7.865,47.666,40.517,40.517,0,0,0-1.788,10.963,14.657,14.657,0,0,0-2.264-3.694,63.4,63.4,0,0,0-44.211-15.611A63.754,63.754,0,0,0,141.4,98.8a14.657,14.657,0,0,0-2.264,3.694,40.517,40.517,0,0,0-1.192-10.963A54.34,54.34,0,0,1,145.21,44.1Zm52.314,64.469-11.917,8.222-11.917-8.1a62.443,62.443,0,0,1,23.833-.119ZM105.409,357.508a32.532,32.532,0,0,1-20.139-2.264L30.692,330.576a9.176,9.176,0,0,1-2.622-14.9l4.171-4.171a33.009,33.009,0,0,0,7.984-33.724,8.937,8.937,0,0,1,2.145-9.414,9.3,9.3,0,0,1,6.435-2.741,9.652,9.652,0,0,1,2.979,0,33.129,33.129,0,0,0,15.253,1.192h.715l3.694-.834h.834a31.34,31.34,0,0,0,13.227-7.865l4.171-4.171a9.176,9.176,0,0,1,8.222-2.5,9.3,9.3,0,0,1,6.673,5.243L129.6,311.748a33.843,33.843,0,0,1,2.383,20.258,33.009,33.009,0,0,1-26.574,25.5Zm43.138-4.528a57.32,57.32,0,0,0,6.2-16.683,55.889,55.889,0,0,0-4.052-34.677L126.025,246.8a32.651,32.651,0,0,0-45.76-15.134,179.583,179.583,0,0,1,35.75-77.815,116.782,116.782,0,0,0,22.641-43.5,10.963,10.963,0,0,0,4.647,6.792l35.75,23.833a11.808,11.808,0,0,0,13.227,0l35.75-23.833a11.2,11.2,0,0,0,4.528-6.792,116.782,116.782,0,0,0,22.642,43.5,179.584,179.584,0,0,1,35.75,77.815,32.89,32.89,0,0,0-21.569-3.694A33.486,33.486,0,0,0,245.548,246.8l-25.025,55.174a56.485,56.485,0,0,0,2.145,51.361,166.831,166.831,0,0,1-74.121,0Zm192.572-22.761-55.174,25.025a32.413,32.413,0,0,1-20.139,2.264,33.009,33.009,0,0,1-25.978-25.859,33.843,33.843,0,0,1,2.383-20.258l25.025-55.055a9.3,9.3,0,0,1,6.673-5.243H275.7a9.414,9.414,0,0,1,6.435,2.622l4.171,4.171a32.055,32.055,0,0,0,13.227,7.865h.834l3.694.834h0a30.745,30.745,0,0,0,15.372-1.073,9.295,9.295,0,0,1,11.917,11.917,32.771,32.771,0,0,0,7.865,33.724l4.171,4.171a8.938,8.938,0,0,1,2.622,8.1,9.3,9.3,0,0,1-4.886,7.15Z" transform="translate(314.416 308.794)" fill="#ff4d00" stroke="#ff4d00" stroke-width="1"/>
    <g id="SVGRepo_iconCarrier" transform="translate(314.416 308.793)">
      <path id="Tracé_1-2" data-name="Tracé 1" d="M356.492,294.707a9.176,9.176,0,0,1-2.264-9.414A32.771,32.771,0,0,0,316.69,242.87a190.666,190.666,0,0,0-41.47-102.721c-13.347-19.186-21.45-31.341-18.232-40.993a78.054,78.054,0,0,0-11.8-69A71.5,71.5,0,0,0,185.608.01a71.5,71.5,0,0,0-59.583,30.149,78.054,78.054,0,0,0-11.2,69c3.217,9.652-4.767,21.807-18.232,40.993A190.666,190.666,0,0,0,54.525,242.87a32.771,32.771,0,0,0-38.014,42.423,9.176,9.176,0,0,1-2.264,9.414l-4.171,4.171a32.771,32.771,0,0,0-9.057,29.2,33.247,33.247,0,0,0,18.709,23.833L74.9,376.932a57.081,57.081,0,0,0,23.833,5.124,59.584,59.584,0,0,0,11.321-.715,57.438,57.438,0,0,0,20.377-8.58,168.141,168.141,0,0,0,55.174,8.58,167.547,167.547,0,0,0,55.174-8.58,57.438,57.438,0,0,0,20.377,8.58,59.583,59.583,0,0,0,11.2,1.073,57.081,57.081,0,0,0,23.833-5.124l55.174-25.025A33.6,33.6,0,0,0,370.2,328.431a33.128,33.128,0,0,0-9.176-29.2ZM145.21,44.1a48.381,48.381,0,0,1,40.4-20.258A47.666,47.666,0,0,1,226,44.1a53.982,53.982,0,0,1,7.865,47.666,40.517,40.517,0,0,0-1.788,10.963,14.657,14.657,0,0,0-2.264-3.694,63.4,63.4,0,0,0-44.211-15.611A63.754,63.754,0,0,0,141.4,98.8a14.657,14.657,0,0,0-2.264,3.694,40.517,40.517,0,0,0-1.192-10.963A54.34,54.34,0,0,1,145.21,44.1Zm52.314,64.469-11.917,8.222-11.917-8.1a62.443,62.443,0,0,1,23.833-.119ZM105.409,357.508a32.532,32.532,0,0,1-20.139-2.264L30.692,330.576a9.176,9.176,0,0,1-2.622-14.9l4.171-4.171a33.009,33.009,0,0,0,7.984-33.724,8.937,8.937,0,0,1,2.145-9.414,9.3,9.3,0,0,1,6.435-2.741,9.652,9.652,0,0,1,2.979,0,33.129,33.129,0,0,0,15.253,1.192h.715l3.694-.834h.834a31.34,31.34,0,0,0,13.227-7.865l4.171-4.171a9.176,9.176,0,0,1,8.222-2.5,9.3,9.3,0,0,1,6.673,5.243L129.6,311.748a33.843,33.843,0,0,1,2.383,20.258,33.009,33.009,0,0,1-26.574,25.5Zm43.138-4.528a57.32,57.32,0,0,0,6.2-16.683,55.889,55.889,0,0,0-4.052-34.677L126.025,246.8a32.651,32.651,0,0,0-45.76-15.134,179.583,179.583,0,0,1,35.75-77.815,116.782,116.782,0,0,0,22.641-43.5,10.963,10.963,0,0,0,4.647,6.792l35.75,23.833a11.808,11.808,0,0,0,13.227,0l35.75-23.833a11.2,11.2,0,0,0,4.528-6.792,116.782,116.782,0,0,0,22.642,43.5,179.584,179.584,0,0,1,35.75,77.815,32.89,32.89,0,0,0-21.569-3.694A33.486,33.486,0,0,0,245.548,246.8l-25.025,55.174a56.485,56.485,0,0,0,2.145,51.361,166.831,166.831,0,0,1-74.121,0Zm192.572-22.761-55.174,25.025a32.413,32.413,0,0,1-20.139,2.264,33.009,33.009,0,0,1-25.978-25.859,33.843,33.843,0,0,1,2.383-20.258l25.025-55.055a9.3,9.3,0,0,1,6.673-5.243H275.7a9.414,9.414,0,0,1,6.435,2.622l4.171,4.171a32.055,32.055,0,0,0,13.227,7.865h.834l3.694.834h0a30.745,30.745,0,0,0,15.372-1.073,9.295,9.295,0,0,1,11.917,11.917,32.771,32.771,0,0,0,7.865,33.724l4.171,4.171a8.938,8.938,0,0,1,2.622,8.1,9.3,9.3,0,0,1-4.886,7.15Z" transform="translate(0 0)" fill="#ff4d00" stroke="#ff4d00" stroke-width="1"/>
    </g>
  </g>
</svg>
