<svg xmlns="http://www.w3.org/2000/svg" xmlns:xlink="http://www.w3.org/1999/xlink" width="1000" height="1000" viewBox="0 0 1000 1000">
  <defs>
    <clipPath id="clip-MacOS">
      <rect width="1000" height="1000"/>
    </clipPath>
  </defs>
  <g id="MacOS" clip-path="url(#clip-MacOS)">
    <path id="Apple_logo_black" d="M301.411,130.378c-2.218,1.721-41.381,23.789-41.381,72.857,0,56.756,49.834,76.835,51.325,77.332-.229,1.224-7.917,27.5-26.275,54.27-16.369,23.559-33.465,47.08-59.471,47.08s-32.7-15.107-62.722-15.107c-29.258,0-39.66,15.6-63.449,15.6s-40.387-21.8-59.471-48.572C17.861,302.406,0,253.566,0,207.213c0-74.349,48.342-113.78,95.919-113.78,25.28,0,46.353,16.6,62.225,16.6,15.107,0,38.666-17.593,67.426-17.593C236.471,92.439,275.634,93.433,301.411,130.378ZM211.917,60.963c11.894-14.113,20.308-33.694,20.308-53.276A36.715,36.715,0,0,0,231.5,0c-19.352.727-42.376,12.889-56.259,28.99-10.9,12.391-21.073,31.973-21.073,51.822a35.115,35.115,0,0,0,.727,6.922,29.928,29.928,0,0,0,5.2.5c17.363,0,39.2-11.627,51.822-27.269Z" transform="translate(344.323 308.793)"/>
    <path id="Apple_logo_black-2" data-name="Apple_logo_black" d="M301.411,130.378c-2.218,1.721-41.381,23.789-41.381,72.857,0,56.756,49.834,76.835,51.325,77.332-.229,1.224-7.917,27.5-26.275,54.27-16.369,23.559-33.465,47.08-59.471,47.08s-32.7-15.107-62.722-15.107c-29.258,0-39.66,15.6-63.449,15.6s-40.387-21.8-59.471-48.572C17.861,302.406,0,253.566,0,207.213c0-74.349,48.342-113.78,95.919-113.78,25.28,0,46.353,16.6,62.225,16.6,15.107,0,38.666-17.593,67.426-17.593C236.471,92.439,275.634,93.433,301.411,130.378ZM211.917,60.963c11.894-14.113,20.308-33.694,20.308-53.276A36.715,36.715,0,0,0,231.5,0c-19.352.727-42.376,12.889-56.259,28.99-10.9,12.391-21.073,31.973-21.073,51.822a35.115,35.115,0,0,0,.727,6.922,29.928,29.928,0,0,0,5.2.5c17.363,0,39.2-11.627,51.822-27.269Z" transform="translate(344.323 308.793)"/>
  </g>
</svg>
