<svg xmlns="http://www.w3.org/2000/svg" xmlns:xlink="http://www.w3.org/1999/xlink" width="1000" height="1000" viewBox="0 0 1000 1000">
  <defs>
    <clipPath id="clip-Windows">
      <rect width="1000" height="1000"/>
    </clipPath>
  </defs>
  <g id="Windows" clip-path="url(#clip-Windows)">
    <g id="Windows_11_logo" transform="translate(309 309)">
      <path id="Rectangle_1" data-name="Rectangle 1" d="M15,0H181.256a0,0,0,0,1,0,0V181.256a0,0,0,0,1,0,0H0a0,0,0,0,1,0,0V15A15,15,0,0,1,15,0Z" transform="translate(0 0)" fill="#0078d4"/>
      <path id="Rectangle_2" data-name="Rectangle 2" d="M0,0H166.256a15,15,0,0,1,15,15V181.256a0,0,0,0,1,0,0H0a0,0,0,0,1,0,0V0A0,0,0,0,1,0,0Z" transform="translate(201.143 0)" fill="#0078d4"/>
      <path id="Rectangle_3" data-name="Rectangle 3" d="M0,0H181.256a0,0,0,0,1,0,0V181.256a0,0,0,0,1,0,0H15a15,15,0,0,1-15-15V0A0,0,0,0,1,0,0Z" transform="translate(0 201.159)" fill="#0078d4"/>
      <path id="Rectangle_4" data-name="Rectangle 4" d="M0,0H181.256a0,0,0,0,1,0,0V166.256a15,15,0,0,1-15,15H0a0,0,0,0,1,0,0V0A0,0,0,0,1,0,0Z" transform="translate(201.143 201.159)" fill="#0078d4"/>
    </g>
    <g id="Windows_11_logo-2" data-name="Windows_11_logo" transform="translate(309 309)">
      <path id="Rectangle_1-2" data-name="Rectangle 1" d="M15,0H181.256a0,0,0,0,1,0,0V181.256a0,0,0,0,1,0,0H0a0,0,0,0,1,0,0V15A15,15,0,0,1,15,0Z" transform="translate(0 0)" fill="#0078d4"/>
      <path id="Rectangle_2-2" data-name="Rectangle 2" d="M0,0H166.256a15,15,0,0,1,15,15V181.256a0,0,0,0,1,0,0H0a0,0,0,0,1,0,0V0A0,0,0,0,1,0,0Z" transform="translate(201.143 0)" fill="#0078d4"/>
      <path id="Rectangle_3-2" data-name="Rectangle 3" d="M0,0H181.256a0,0,0,0,1,0,0V181.256a0,0,0,0,1,0,0H15a15,15,0,0,1-15-15V0A0,0,0,0,1,0,0Z" transform="translate(0 201.159)" fill="#0078d4"/>
      <path id="Rectangle_4-2" data-name="Rectangle 4" d="M0,0H181.256a0,0,0,0,1,0,0V166.256a15,15,0,0,1-15,15H0a0,0,0,0,1,0,0V0A0,0,0,0,1,0,0Z" transform="translate(201.143 201.159)" fill="#0078d4"/>
    </g>
  </g>
</svg>
